<svg width="100" xmlns="http://www.w3.org/2000/svg" height="100" id="screenshot-4b585f3a-1664-8045-8006-802ed65f430c" viewBox="0 0 100 100" xmlns:xlink="http://www.w3.org/1999/xlink" fill="none" version="1.1"><g id="shape-4b585f3a-1664-8045-8006-802ed65f430c" rx="0" ry="0"><g id="shape-4b585f3a-1664-8045-8006-802ed65f430f"><g class="fills" id="fills-4b585f3a-1664-8045-8006-802ed65f430f"><path d="M50,0C77.59576416015625,0,100,22.40423583984375,100,50C100,77.59576416015625,77.59576416015625,100,50,100C22.40423583984375,100,0,77.59576416015625,0,50C0,22.40423583984375,22.40423583984375,0,50,0" style="fill: rgb(104, 231, 75); fill-opacity: 1;"/></g></g><g id="shape-4b585f3a-1664-8045-8006-802efb00879e"><g class="fills" id="fills-4b585f3a-1664-8045-8006-802efb00879e"><ellipse cx="50" cy="50" rx="40" ry="40" transform="matrix(1.000000, 0.000000, 0.000000, 1.000000, 0.000000, 0.000000)" style="fill: rgb(35, 92, 19); fill-opacity: 1;"/></g></g><g id="shape-4b585f3a-1664-8045-8006-802ed65f4310"><g class="fills" id="fills-4b585f3a-1664-8045-8006-802ed65f4310"><ellipse cx="50" cy="50" rx="32" ry="32" transform="matrix(1.000000, 0.000000, 0.000000, 1.000000, 0.000000, 0.000000)" style="fill: rgb(104, 231, 75); fill-opacity: 1;"/></g></g><g id="shape-4b585f3a-1664-8045-8006-802ed65f4311"><g class="fills" id="fills-4b585f3a-1664-8045-8006-802ed65f4311"><path d="M32,46C37.5191650390625,46,42,45.4808349609375,42,51C42,56.5191650390625,37.5191650390625,61,32,61C26.4808349609375,61,22,56.5191650390625,22,51C22,45.4808349609375,26.4808349609375,46,32,46" style="fill: rgb(35, 92, 19); fill-opacity: 1;"/></g></g><g id="shape-4b585f3a-1664-8045-8006-802ed65f4312"><g class="fills" id="fills-4b585f3a-1664-8045-8006-802ed65f4312"><path d="M66,46.0130615234375C71.51910400390625,46.0130615234375,76,45.493896484375,76,51.0130615234375C76,56.5322265625,71.51910400390625,61.0130615234375,66,61.0130615234375C60.4808349609375,61.0130615234375,56,56.5322265625,56,51.0130615234375C56,45.493896484375,60.4808349609375,46.0130615234375,66,46.0130615234375" style="fill: rgb(35, 92, 19); fill-opacity: 1;"/></g></g></g></svg>