<svg width="67.882" xmlns="http://www.w3.org/2000/svg" height="67.882" id="screenshot-77104d06-8dea-802d-8006-89692eaaeae2" viewBox="-9.941 -9.941 67.882 67.882" xmlns:xlink="http://www.w3.org/1999/xlink" fill="none" version="1.1"><g id="shape-77104d06-8dea-802d-8006-89692eaaeae2" width="24" height="24" rx="0" ry="0" style="fill: rgb(0, 0, 0);"><g id="shape-77104d06-8dea-802d-8006-89692eaaeae3" style="display: none;"><g class="fills" id="fills-77104d06-8dea-802d-8006-89692eaaeae3"><rect width="47.99999999999977" height="47.999999999999886" x="0" transform="matrix(0.707107, 0.707107, -0.707107, 0.707107, 24.000000, -9.941125)" style="fill: rgb(104, 231, 75); fill-opacity: 1;" ry="0" fill="none" rx="0" y="0"/></g></g><g id="shape-77104d06-8dea-802d-8006-89692eaaeae4"><g class="fills" id="fills-77104d06-8dea-802d-8006-89692eaaeae4"><path d="M11.272008895874023,33.89947509765625L14.100622177124023,36.7279052734375L31.070959091186523,19.75732421875L33.899452209472656,22.58575439453125L36.728065490722656,19.75732421875L33.899452209472656,16.92889404296875L36.728065490722656,14.10052490234375L33.899452209472656,11.2720947265625L31.070959091186523,14.1004638671875L28.242712020874023,11.2720947265625L25.414342880249023,14.1004638671875L28.242712020874023,16.92889404296875ZM19.757238388061523,14.1004638671875L22.585729598999023,11.27203369140625L25.414342880249023,14.1004638671875L22.585729598999023,16.92889404296875ZM19.757238388061523,14.1004638671875L16.928991317749023,16.92889404296875L14.100622177124023,14.1004638671875L16.928991317749023,11.27203369140625ZM33.899452209472656,28.24261474609375L36.728065490722656,25.4141845703125L33.899452209472656,22.58575439453125L31.070959091186523,25.4141845703125ZM33.899452209472656,28.24261474609375L31.070959091186523,31.071044921875L33.899452209472656,33.89947509765625L36.728065490722656,31.071044921875Z" style="fill: rgb(104, 231, 75); fill-opacity: 1;"/></g></g></g></svg>