<svg width="36" xmlns="http://www.w3.org/2000/svg" height="36" id="screenshot-77104d06-8dea-802d-8006-8985f49665b1" viewBox="0 0 36 36" xmlns:xlink="http://www.w3.org/1999/xlink" fill="none" version="1.1"><g id="shape-77104d06-8dea-802d-8006-8985f49665b1" width="24" height="24" rx="0" ry="0" style="fill: rgb(0, 0, 0);"><g id="shape-77104d06-8dea-802d-8006-8985f49665b2" style="display: none;"><g class="fills" id="fills-77104d06-8dea-802d-8006-8985f49665b2"><rect width="36" height="36" x="0" transform="matrix(1.000000, 0.000000, 0.000000, 1.000000, 0.000000, 0.000000)" style="fill: rgb(247, 111, 142); fill-opacity: 1;" ry="0" fill="none" rx="0" y="0"/></g></g><g id="shape-77104d06-8dea-802d-8006-8985f49665b3"><g class="fills" id="fills-77104d06-8dea-802d-8006-8985f49665b3"><path d="M25.20751953125,1.5C23.88720703125,1.5123291015625,22.574462890625,1.698974609375,21.30303955078125,2.054931640625L21.2130126953125,2.08203125C20.41253662109375,1.94482421875,19.6026611328125,1.8690185546875,18.79046630859375,1.85546875C17.12103271484375,1.8270263671875,15.6854248046875,2.219970703125,14.530517578125,2.87548828125C13.3905029296875,2.491455078125,11.0264892578125,1.8299560546875,8.5350341796875,1.9619140625C6.79949951171875,2.053466796875,4.906494140625,2.5650634765625,3.5040283203125,4.0020751953125C2.1044921875,5.43896484375,1.364990234375,7.661865234375,1.52099609375,10.6875C1.56298828125,11.52294921875,1.8074951171875,12.883544921875,2.2154541015625,14.6474609375C2.6204833984375,16.4100341796875,3.19354248046875,18.472412109375,3.906005859375,20.35498046875C4.61846923828125,22.237548828125,5.39996337890625,23.930908203125,6.6209716796875,25.0799560546875C7.23004150390625,25.656005859375,8.06854248046875,26.1405029296875,9.05706787109375,26.10009765625C9.75146484375,26.072998046875,10.37994384765625,25.7774658203125,10.9215087890625,25.341064453125C11.1854248046875,25.678466796875,11.467529296875,25.825439453125,11.7239990234375,25.9619140625C12.0465087890625,26.133056640625,12.361572265625,26.25,12.68701171875,26.3280029296875C13.58837890625,26.5592041015625,14.5272216796875,26.6055908203125,15.44696044921875,26.4644775390625C15.8475341796875,26.39990234375,16.26904296875,26.27392578125,16.68896484375,26.093994140625C16.7039794921875,26.5469970703125,16.7220458984375,26.990966796875,16.74151611328125,27.4410400390625C16.7984619140625,28.865966796875,16.83599853515625,30.181396484375,17.27703857421875,31.3349609375C17.34747314453125,31.52392578125,17.54095458984375,32.4945068359375,18.30755615234375,33.35107421875C19.072509765625,34.208984375,20.572509765625,34.742919921875,22.279541015625,34.3890380859375C23.4840087890625,34.138427734375,25.0169677734375,33.68701171875,26.0340576171875,32.282958984375C27.03900146484375,30.89404296875,27.49346923828125,28.9019775390625,27.58343505859375,25.66943359375C27.60595703125,25.4954833984375,27.63299560546875,25.3470458984375,27.66143798828125,25.20751953125L27.9014892578125,25.228515625L27.92852783203125,25.228515625C29.2139892578125,25.2855224609375,30.6090087890625,25.1085205078125,31.77447509765625,24.58349609375C32.80645751953125,24.118408203125,33.58648681640625,23.6505126953125,34.155029296875,22.8179931640625C34.2974853515625,22.612548828125,34.4534912109375,22.363525390625,34.4954833984375,21.93310546875C34.53753662109375,21.5054931640625,34.2855224609375,20.83349609375,33.864013671875,20.5244140625C33.01947021484375,19.9034423828125,32.48992919921875,20.1390380859375,31.9215087890625,20.25439453125C31.36151123046875,20.37451171875,30.79351806640625,20.44091796875,30.217529296875,20.4539794921875C31.85699462890625,17.778076171875,33.031494140625,14.9339599609375,33.7020263671875,12.4169921875C34.0980224609375,10.9320068359375,34.32147216796875,9.5625,34.3394775390625,8.365478515625C34.3575439453125,7.16845703125,34.25701904296875,6.1080322265625,33.5174560546875,5.18994140625C31.2060546875,2.324951171875,27.95556640625,1.532958984375,25.4415283203125,1.506103515625C25.363525390625,1.5040283203125,25.2855224609375,1.50341796875,25.20751953125,1.5045166015625ZM25.1414794921875,2.3804931640625C27.51904296875,2.3580322265625,30.5579833984375,3.006103515625,32.739013671875,5.71044921875C33.2294921875,6.3179931640625,33.375,7.2060546875,33.3585205078125,8.301025390625C33.3404541015625,9.39453125,33.13201904296875,10.7025146484375,32.7509765625,12.136474609375C32.011474609375,14.91455078125,30.61346435546875,18.151611328125,28.64404296875,21.05859375C28.71392822265625,21.10693359375,28.78948974609375,21.146728515625,28.86895751953125,21.177001953125C29.280029296875,21.342041015625,30.2159423828125,21.4830322265625,32.08648681640625,21.1109619140625C32.55596923828125,21.013427734375,32.9010009765625,20.948974609375,33.25799560546875,21.2130126953125C33.43121337890625,21.356689453125,33.52716064453125,21.5731201171875,33.5174560546875,21.7979736328125C33.4976806640625,21.965576171875,33.43408203125,22.1248779296875,33.3330078125,22.260009765625C32.9730224609375,22.7864990234375,32.25897216796875,23.2860107421875,31.343994140625,23.697021484375C30.53546142578125,24.06298828125,29.37451171875,24.25341796875,28.345458984375,24.2655029296875C27.8294677734375,24.27001953125,27.35400390625,24.23095703125,26.95050048828125,24.1094970703125L26.9234619140625,24.1005859375C26.7674560546875,25.5570068359375,26.40899658203125,28.435546875,26.176513671875,29.748046875C25.989013671875,30.8070068359375,25.66192626953125,31.6484375,25.0364990234375,32.2784423828125C24.41253662109375,32.908447265625,23.530517578125,33.2880859375,22.342529296875,33.5355224609375C20.8709716796875,33.8414306640625,19.7984619140625,33.511474609375,19.10693359375,32.946044921875C18.4169921875,32.383544921875,18.10052490234375,31.635009765625,17.90997314453125,31.176025390625C17.779541015625,30.8609619140625,17.71197509765625,30.4515380859375,17.64599609375,29.9039306640625C17.573486328125,29.24853515625,17.52490234375,28.590576171875,17.50048828125,27.931396484375C17.45745849609375,26.776123046875,17.4434814453125,25.61962890625,17.45843505859375,24.4635009765625C16.843505859375,25.008056640625,16.0784912109375,25.3709716796875,15.25799560546875,25.507568359375C14.282958984375,25.66796875,13.40997314453125,25.510498046875,12.8895263671875,25.384521484375C12.63433837890625,25.321533203125,12.3875732421875,25.228515625,12.154541015625,25.10693359375C11.91143798828125,24.9825439453125,11.6820068359375,24.8414306640625,11.52899169921875,24.5625C11.43890380859375,24.4031982421875,11.4100341796875,24.216552734375,11.447998046875,24.03759765625C11.49713134765625,23.855712890625,11.60595703125,23.695556640625,11.75701904296875,23.5830078125C12.03900146484375,23.3609619140625,12.4095458984375,23.238037109375,12.968994140625,23.1240234375C13.98895263671875,22.9215087890625,14.344482421875,22.781982421875,14.5604248046875,22.615478515625C14.7449951171875,22.4730224609375,14.9534912109375,22.1849365234375,15.32257080078125,21.760498046875L15.3179931640625,21.7049560546875C14.66033935546875,21.685791015625,14.0157470703125,21.5174560546875,13.4324951171875,21.2130126953125C13.22100830078125,21.428955078125,12.135009765625,22.54345703125,10.81048583984375,24.088623046875C10.2540283203125,24.7349853515625,9.6390380859375,25.10546875,8.989501953125,25.132568359375C8.3399658203125,25.1595458984375,7.7535400390625,24.8414306640625,7.25543212890625,24.37353515625C6.25799560546875,23.4344482421875,5.4630126953125,21.819091796875,4.77001953125,19.993408203125C4.0799560546875,18.16650390625,3.5159912109375,16.132568359375,3.11700439453125,14.39990234375C2.7149658203125,12.66748046875,2.47796630859375,11.27099609375,2.44500732421875,10.597412109375C2.2950439453125,7.7340087890625,2.9849853515625,5.804931640625,4.1700439453125,4.5885009765625C5.35498046875,3.3719482421875,6.97796630859375,2.9100341796875,8.56201171875,2.822998046875C11.4029541015625,2.6640625,14.10150146484375,3.62548828125,14.64752197265625,3.83251953125C15.698974609375,3.1395263671875,17.05352783203125,2.70751953125,18.74700927734375,2.7344970703125C19.5496826171875,2.74560546875,20.3486328125,2.8463134765625,21.12896728515625,3.034423828125L21.157470703125,3.0224609375C21.50152587890625,2.905517578125,21.85052490234375,2.8074951171875,22.2044677734375,2.728515625C23.168212890625,2.510986328125,24.15216064453125,2.3953857421875,25.1400146484375,2.383544921875ZM25.35595703125,3.301513671875L25.1505126953125,3.301513671875C24.33892822265625,3.3125,23.5302734375,3.40087890625,22.7354736328125,3.5655517578125C24.3131103515625,4.252685546875,25.69921875,5.3143310546875,26.77349853515625,6.6585693359375C27.42431640625,7.462646484375,27.964111328125,8.3505859375,28.3785400390625,9.2984619140625C28.5345458984375,9.661376953125,28.6395263671875,9.968994140625,28.697998046875,10.2060546875C28.72796630859375,10.325927734375,28.7490234375,10.426513671875,28.7550048828125,10.531494140625C28.76055908203125,10.597900390625,28.7550048828125,10.6649169921875,28.738525390625,10.7294921875L28.7294921875,10.7474365234375C28.77301025390625,11.9520263671875,28.46551513671875,12.76806640625,28.42803955078125,13.9169921875C28.39947509765625,14.7509765625,28.61846923828125,15.73046875,28.6724853515625,16.7969970703125C28.7235107421875,17.802001953125,28.5989990234375,18.904541015625,27.927001953125,19.987548828125C27.9830322265625,20.053466796875,28.03704833984375,20.1195068359375,28.0889892578125,20.1854248046875C29.86651611328125,17.470458984375,31.14898681640625,14.464599609375,31.83154296875,11.9039306640625C32.19598388671875,10.52392578125,32.3909912109375,9.2744140625,32.407470703125,8.2845458984375C32.4224853515625,7.29443359375,32.23193359375,6.575927734375,31.98895263671875,6.277587890625C30.08697509765625,3.91796875,27.5145263671875,3.3165283203125,25.35595703125,3.300048828125M18.56854248046875,3.6524658203125C16.89306640625,3.655517578125,15.6900634765625,4.1474609375,14.779541015625,4.882568359375C13.8389892578125,5.64306640625,13.20904541015625,6.6824951171875,12.7950439453125,7.7490234375C12.394287109375,8.8148193359375,12.14923095703125,9.932861328125,12.06744384765625,11.068603515625L12.08697509765625,11.0579833984375C12.592529296875,10.781982421875,13.25701904296875,10.507568359375,13.968017578125,10.3485107421875C14.68048095703125,10.1895751953125,15.44696044921875,10.1400146484375,16.1414794921875,10.4010009765625C16.83599853515625,10.6619873046875,17.4105224609375,11.2769775390625,17.61895751953125,12.2099609375C18.61651611328125,16.68896484375,17.3084716796875,18.35400390625,16.82550048828125,19.6094970703125C16.644287109375,20.065185546875,16.48809814453125,20.5302734375,16.3575439453125,21.0030517578125C16.41748046875,20.986083984375,16.47802734375,20.9739990234375,16.53900146484375,20.967041015625C16.802490234375,20.9527587890625,17.0654296875,21.0042724609375,17.30401611328125,21.116943359375C17.78997802734375,21.31201171875,18.12298583984375,21.719970703125,18.30303955078125,22.18798828125C18.3499755859375,22.31201171875,18.38348388671875,22.44189453125,18.4034423828125,22.5780029296875C18.42352294921875,22.635009765625,18.43304443359375,22.693603515625,18.4320068359375,22.7535400390625C18.37811279296875,24.4661865234375,18.384033203125,26.18017578125,18.449951171875,27.8924560546875C18.4830322265625,28.633544921875,18.531005859375,29.2845458984375,18.592529296875,29.799072265625C18.65252685546875,30.31201171875,18.73944091796875,30.7020263671875,18.7950439453125,30.833984375C18.97503662109375,31.27490234375,19.24053955078125,31.85107421875,19.720458984375,32.242431640625C20.20050048828125,32.634033203125,20.88604736328125,32.8935546875,22.1414794921875,32.632568359375C23.23052978515625,32.406005859375,23.9024658203125,32.092529296875,24.35247802734375,31.637939453125C24.79949951171875,31.1865234375,25.0679931640625,30.5579833984375,25.23895263671875,29.593505859375C25.4954833984375,28.14892578125,26.011474609375,23.96240234375,26.072998046875,23.1734619140625C26.0460205078125,22.5810546875,26.135986328125,22.12353515625,26.33099365234375,21.7755126953125C26.5335693359375,21.41845703125,26.845458984375,21.199462890625,27.114013671875,21.0810546875C27.2490234375,21.02099609375,27.375,20.98193359375,27.47845458984375,20.9534912109375C27.36822509765625,20.801025390625,27.253173828125,20.65185546875,27.13348388671875,20.506591796875C26.74560546875,20.052734375,26.4276123046875,19.543701171875,26.1900634765625,18.9959716796875C26.07550048828125,18.770751953125,25.95404052734375,18.549072265625,25.82550048828125,18.33154296875C25.637939453125,18.00146484375,25.39947509765625,17.589111328125,25.1505126953125,17.12548828125C24.65106201171875,16.197021484375,24.1080322265625,15.072021484375,23.82598876953125,13.9755859375C23.5455322265625,12.882080078125,23.5035400390625,11.74951171875,24.2235107421875,10.949951171875C24.862548828125,10.240478515625,25.98150634765625,9.946533203125,27.66302490234375,10.111572265625C27.613525390625,9.967529296875,27.58343505859375,9.8475341796875,27.49951171875,9.655517578125C27.1199951171875,8.7840576171875,26.6240234375,7.968017578125,26.02496337890625,7.22998046875C24.60003662109375,5.4630126953125,22.29449462890625,3.7109375,18.73052978515625,3.654052734375L18.56854248046875,3.654052734375ZM9.154541015625,3.7230224609375C8.9744873046875,3.7230224609375,8.79449462890625,3.72802734375,8.61444091796875,3.738037109375C7.1834716796875,3.8175048828125,5.83050537109375,4.220947265625,4.863037109375,5.217041015625C3.8924560546875,6.21142578125,3.2550048828125,7.843505859375,3.39306640625,10.5465087890625C3.4215087890625,11.056396484375,3.6510009765625,12.490478515625,4.04400634765625,14.1915283203125C4.43701171875,15.8955078125,4.9949951171875,17.89794921875,5.66400146484375,19.66650390625C6.3330078125,21.4365234375,7.14599609375,22.97705078125,7.9169921875,23.7060546875C8.30548095703125,24.070556640625,8.64300537109375,24.217529296875,8.948974609375,24.20556640625C9.25653076171875,24.1905517578125,9.62548828125,24.01953125,10.0784912109375,23.492919921875C10.9034423828125,22.527587890625,11.7589111328125,21.588623046875,12.6435546875,20.677490234375C12.01849365234375,20.1533203125,11.537353515625,19.478759765625,11.24554443359375,18.717041015625C10.9560546875,17.962646484375,10.8681640625,17.145751953125,10.99053955078125,16.3470458984375C11.135986328125,15.3299560546875,11.155517578125,14.37890625,11.1390380859375,13.6290283203125C11.1209716796875,12.89697265625,11.0670166015625,12.4110107421875,11.0670166015625,12.1064453125L11.0670166015625,12.0645751953125C11.0654296875,10.479248046875,11.3494873046875,8.9066162109375,11.905517578125,7.4219970703125C12.30145263671875,6.39892578125,12.8924560546875,5.3594970703125,13.77899169921875,4.51806640625C12.90899658203125,4.240478515625,11.364013671875,3.8175048828125,9.6915283203125,3.738037109375C9.51171875,3.7283935546875,9.33160400390625,3.723388671875,9.15155029296875,3.7230224609375ZM26.72552490234375,10.9859619140625C25.7640380859375,10.9979248046875,25.2239990234375,11.239501953125,24.9405517578125,11.554443359375C24.53851318359375,12.00146484375,24.5009765625,12.7845458984375,24.75,13.75048828125C24.9990234375,14.7164306640625,25.510498046875,15.7979736328125,25.99346923828125,16.695068359375C26.2335205078125,17.14501953125,26.467529296875,17.550048828125,26.656494140625,17.876953125C26.8470458984375,18.20703125,26.986572265625,18.4410400390625,27.07049560546875,18.6419677734375C27.1505126953125,18.822998046875,27.2344970703125,18.988525390625,27.322509765625,19.138427734375C27.69451904296875,18.375,27.761962890625,17.62646484375,27.72296142578125,16.844970703125C27.6734619140625,15.8790283203125,27.4425048828125,14.8905029296875,27.47698974609375,13.8900146484375C27.5145263671875,12.719970703125,27.7530517578125,11.95654296875,27.77398681640625,11.052001953125C27.42608642578125,11.009521484375,27.07598876953125,10.987548828125,26.72552490234375,10.9859619140625M15.05548095703125,11.1435546875C14.76171875,11.145751953125,14.46893310546875,11.179931640625,14.1824951171875,11.24560546875C13.61297607421875,11.379638671875,13.0633544921875,11.58740234375,12.5474853515625,11.863525390625C12.37451171875,11.9534912109375,12.20947265625,12.05810546875,12.052490234375,12.177001953125L12.02252197265625,12.2039794921875C12.031494140625,12.405029296875,12.07196044921875,12.8924560546875,12.0899658203125,13.6080322265625C12.10498046875,14.3924560546875,12.08697509765625,15.39306640625,11.93096923828125,16.472900390625C11.592041015625,18.824951171875,13.35003662109375,20.77197265625,15.41705322265625,20.77490234375C15.53692626953125,20.2919921875,15.736572265625,19.802978515625,15.93450927734375,19.2869873046875C16.510498046875,17.782470703125,17.64300537109375,16.68603515625,16.68896484375,12.403564453125C16.532958984375,11.7030029296875,16.2239990234375,11.41943359375,15.7979736328125,11.259033203125C15.5594482421875,11.17626953125,15.307861328125,11.136962890625,15.05548095703125,11.1435546875M26.2755126953125,11.424072265625L26.34747314453125,11.424072265625C26.4415283203125,11.427001953125,26.5264892578125,11.43701171875,26.60247802734375,11.4539794921875C26.6715087890625,11.4678955078125,26.73748779296875,11.493896484375,26.7974853515625,11.530517578125C26.852783203125,11.56298828125,26.8914794921875,11.6175537109375,26.9039306640625,11.680419921875L26.9039306640625,11.6925048828125C26.90789794921875,11.7584228515625,26.89007568359375,11.82373046875,26.85296630859375,11.87841796875C26.81109619140625,11.9541015625,26.758544921875,12.0234375,26.69696044921875,12.083984375C26.55169677734375,12.23828125,26.3599853515625,12.3409423828125,26.1510009765625,12.37646484375C25.9461669921875,12.4007568359375,25.739501953125,12.3502197265625,25.56903076171875,12.2340087890625C25.5003662109375,12.188720703125,25.43829345703125,12.13427734375,25.38446044921875,12.072021484375C25.33892822265625,12.0234375,25.307861328125,11.963134765625,25.29443359375,11.89794921875C25.287841796875,11.8331298828125,25.30975341796875,11.7685546875,25.3544921875,11.7210693359375C25.40252685546875,11.670654296875,25.45880126953125,11.6290283203125,25.52099609375,11.5980224609375C25.758544921875,11.489013671875,26.01568603515625,11.4287109375,26.27703857421875,11.4210205078125ZM15.19354248046875,11.655029296875C15.2685546875,11.655029296875,15.34698486328125,11.660888671875,15.42901611328125,11.6729736328125C15.64501953125,11.7030029296875,15.8385009765625,11.758544921875,15.9854736328125,11.841064453125C16.05755615234375,11.8779296875,16.1204833984375,11.926513671875,16.174560546875,11.986572265625C16.20245361328125,12.01953125,16.2235107421875,12.0560302734375,16.237548828125,12.095947265625C16.25152587890625,12.135986328125,16.2559814453125,12.177490234375,16.2509765625,12.220458984375C16.2373046875,12.300048828125,16.20025634765625,12.373779296875,16.14447021484375,12.43212890625C16.08642578125,12.501953125,16.01812744140625,12.5626220703125,15.9420166015625,12.612060546875C15.7557373046875,12.73876953125,15.52972412109375,12.793701171875,15.30596923828125,12.7664794921875C15.0789794921875,12.7298583984375,14.870361328125,12.6197509765625,14.71197509765625,12.4530029296875C14.6461181640625,12.385986328125,14.58966064453125,12.3101806640625,14.5439453125,12.22802734375C14.497314453125,12.1561279296875,14.4766845703125,12.0703125,14.4854736328125,11.9849853515625C14.50653076171875,11.8349609375,14.63397216796875,11.760009765625,14.7554931640625,11.7149658203125C14.89599609375,11.67041015625,15.04339599609375,11.652099609375,15.1905517578125,11.660888671875ZM28.0335693359375,21.7529296875L28.0289306640625,21.7529296875C27.82049560546875,21.8280029296875,27.64947509765625,21.8580322265625,27.5040283203125,21.91796875C27.35906982421875,21.9716796875,27.23895263671875,22.076904296875,27.16650390625,22.2135009765625C27.0765380859375,22.3709716796875,27.00146484375,22.651611328125,27.02398681640625,23.12841796875C27.088623046875,23.171142578125,27.15948486328125,23.2034912109375,27.2340087890625,23.2244873046875C27.47552490234375,23.2965087890625,27.88201904296875,23.344482421875,28.33648681640625,23.3369140625C29.239501953125,23.3265380859375,30.35247802734375,23.1224365234375,30.94354248046875,22.85546875C31.42803955078125,22.636474609375,31.87799072265625,22.3515625,32.280029296875,22.009521484375C30.30450439453125,22.405517578125,29.1900634765625,22.300537109375,28.5045166015625,22.0260009765625C28.33538818359375,21.95703125,28.1768798828125,21.8646240234375,28.0335693359375,21.75146484375M16.6514892578125,21.88037109375L16.6214599609375,21.88037109375C16.5465087890625,21.886474609375,16.43701171875,21.9105224609375,16.22698974609375,22.138427734375C15.73193359375,22.675537109375,15.56103515625,23.011474609375,15.1529541015625,23.3265380859375C14.74798583984375,23.6414794921875,14.218505859375,23.8079833984375,13.16253662109375,24.01806640625C12.8280029296875,24.083984375,12.63751220703125,24.157470703125,12.50848388671875,24.216064453125C12.550537109375,24.2490234375,12.5460205078125,24.258056640625,12.6075439453125,24.28955078125C12.761962890625,24.3720703125,12.96148681640625,24.444091796875,13.1204833984375,24.4844970703125C13.574951171875,24.593994140625,14.32049560546875,24.7230224609375,15.0989990234375,24.593994140625C15.87750244140625,24.4649658203125,16.68603515625,24.103515625,17.3759765625,23.16455078125C17.4959716796875,23.0025634765625,17.50799560546875,22.762451171875,17.4105224609375,22.50439453125C17.30999755859375,22.24951171875,17.093994140625,22.027587890625,16.94097900390625,21.9644775390625C16.8497314453125,21.9215087890625,16.75189208984375,21.89404296875,16.6514892578125,21.883544921875Z" style="fill: rgb(247, 111, 142); fill-opacity: 1;"/></g></g></g></svg>