<svg width="36" xmlns="http://www.w3.org/2000/svg" height="36" id="screenshot-77104d06-8dea-802d-8006-8983bc092740" viewBox="0 0 36 36" xmlns:xlink="http://www.w3.org/1999/xlink" fill="none" version="1.1"><g id="shape-77104d06-8dea-802d-8006-8983bc092740" width="16" height="16" rx="0" ry="0" style="fill: rgb(0, 0, 0);"><g id="shape-77104d06-8dea-802d-8006-8983bc0db24d" style="display: none;"><g class="fills" id="fills-77104d06-8dea-802d-8006-8983bc0db24d"><rect width="35.99597132514975" height="35.95881799345216" x="0" transform="matrix(1.000000, 0.000000, 0.000000, 1.000000, 0.000000, 0.000000)" style="fill: rgb(200, 184, 219); fill-opacity: 1;" ry="0" fill="none" rx="0" y="0.036942067483778374"/></g></g><g id="shape-77104d06-8dea-802d-8006-8983bc10ec57"><g class="fills" id="fills-77104d06-8dea-802d-8006-8983bc10ec57"><path d="M15.97695541381836,35.87939453125C15.44179916381836,35.815673828125,14.88027572631836,35.7332763671875,14.72988510131836,35.6962890625C14.50844955444336,35.6439208984375,14.28567123413086,35.5970458984375,14.06216049194336,35.555908203125C13.80630111694336,35.50634765625,13.55288314819336,35.447021484375,13.30190658569336,35.3780517578125C12.13613510131836,35.044189453125,12.05263900756836,35.0169677734375,11.17397689819336,34.657958984375C10.36513900756836,34.3287353515625,8.87588119506836,33.5595703125,8.36611557006836,33.20947265625C8.22671127319336,33.1129150390625,8.09609603881836,33.0350341796875,8.07632064819336,33.0350341796875C8.05630111694336,33.0350341796875,7.730617523193359,32.805908203125,7.351345062255859,32.525634765625C4.941310882568359,30.743896484375,3.1317405700683594,28.5806884765625,1.8243675231933594,25.916259765625C1.5996360778808594,25.458740234375,1.4159202575683594,25.052734375,1.4159202575683594,25.0145263671875C1.4159202575683594,24.976806640625,1.3755149841308594,24.87255859375,1.3260765075683594,24.7850341796875C1.2237815856933594,24.6026611328125,1.0785179138183594,24.2099609375,0.9610862731933594,23.8040771484375C0.9107933044433594,23.631591796875,0.8519554138183594,23.4615478515625,0.7853050231933594,23.294677734375C0.7303733825683594,23.16552734375,0.6864280700683594,23.008056640625,0.6864280700683594,22.9447021484375C0.6864280700683594,22.8809814453125,0.6314964294433594,22.673583984375,0.5647239685058594,22.4825439453125C0.4974632263183594,22.29296875,0.4437522888183594,22.069091796875,0.4437522888183594,21.9853515625C0.4437522888183594,21.9022216796875,0.3912620544433594,21.614501953125,0.3260765075683594,21.345947265625C0.16823959350585938,20.682861328125,0.000026702880859375,18.965576171875,0.000026702880859375,18.003173828125C0.000026702880859375,17.0418701171875,0.16823959350585938,15.3245849609375,0.3260765075683594,14.661865234375C0.3910179138183594,14.3929443359375,0.4437522888183594,14.0999755859375,0.4437522888183594,14.010009765625C0.4437522888183594,13.9197998046875,0.4842796325683594,13.7431640625,0.5335960388183594,13.61669921875C0.5841331481933594,13.490966796875,0.6490745544433594,13.2647705078125,0.6788597106933594,13.1143798828125C0.7098655700683594,12.964111328125,0.7799339294433594,12.705078125,0.8371849060058594,12.537109375L1.0028343200683594,12.05224609375C1.1246604919433594,11.68896484375,1.2376976013183594,11.3817138671875,1.2918968200683594,11.261962890625C1.3227806091308594,11.195068359375,1.4432640075683594,10.922119140625,1.5609397888183594,10.6552734375C1.7511253356933594,10.2239990234375,2.1585960388183594,9.41064453125,2.3968772888183594,8.985107421875C2.4837913513183594,8.8291015625,2.5165061950683594,8.777587890625,2.9867210388183594,8.0433349609375C3.7318382263183594,6.878173828125,5.004665374755859,5.42822265625,6.189723968505859,4.3946533203125C6.607326507568359,4.0302734375,8.00271224975586,2.972412109375,8.06533432006836,2.972412109375C8.08266830444336,2.972412109375,8.21426010131836,2.893310546875,8.35866928100586,2.796875C8.73720932006836,2.5433349609375,9.10879135131836,2.328125,9.59328842163086,2.085693359375C9.76699447631836,2,9.93911361694336,1.91064453125,10.10964584350586,1.8179931640625C10.18960189819336,1.77197265625,10.33999252319336,1.702880859375,11.11245346069336,1.357421875C11.28261947631836,1.281494140625,11.46621322631836,1.21240234375,11.99453353881836,1.02783203125C12.11098861694336,0.9873046875,12.34487533569336,0.9017333984375,12.51211166381836,0.8388671875C12.68008041381836,0.776611328125,12.87759017944336,0.7249755859375,12.95132064819336,0.7249755859375C13.02383041381836,0.7249755859375,13.21499252319336,0.6744384765625,13.37563705444336,0.6119384765625C13.53579330444336,0.54931640625,13.82668685913086,0.47802734375,14.02334213256836,0.453857421875C14.21914291381836,0.4307861328125,14.47915267944336,0.3759765625,14.60122299194336,0.3330078125C14.72231674194336,0.2913818359375,15.05410385131836,0.237548828125,15.33840560913086,0.213623046875C15.70913314819336,0.18017578125,16.07851791381836,0.13671875,16.44668197631836,0.0830078125C17.20254135131836,-0.0277099609375,18.84609603881836,-0.0277099609375,19.59426498413086,0.0830078125C19.94741439819336,0.133544921875,20.30190658569336,0.17529296875,20.65737533569336,0.2080078125C20.92544174194336,0.230224609375,21.26699447631836,0.2861328125,21.41762924194336,0.332275390625C21.56801986694336,0.3770751953125,21.82851791381836,0.433349609375,21.99551010131836,0.453857421875C22.16250228881836,0.4759521484375,22.44375228881836,0.545166015625,22.62026596069336,0.608642578125C22.79751205444336,0.6732177734375,22.99819564819336,0.7249755859375,23.06759262084961,0.7249755859375C23.13656234741211,0.7249755859375,23.27962875366211,0.763427734375,23.38375473022461,0.811767578125C23.48934555053711,0.8590087890625,23.71236801147461,0.937744140625,23.88058090209961,0.9873046875C24.04745101928711,1.0379638671875,24.33395004272461,1.1376953125,24.51876449584961,1.211181640625C24.70211410522461,1.2845458984375,24.94820785522461,1.381103515625,25.06588363647461,1.425048828125C25.28231430053711,1.5064697265625,26.88253402709961,2.3062744140625,27.10018539428711,2.4425048828125C28.86654281616211,3.54296875,29.77511215209961,4.2618408203125,30.99679183959961,5.522705078125C32.46993637084961,7.0435791015625,33.44747543334961,8.491943359375,34.44271469116211,10.624267578125C34.51314926147461,10.77490234375,34.62044906616211,10.99755859375,34.68197250366211,11.1181640625C34.74251937866211,11.2401123046875,34.79305648803711,11.3828125,34.79305648803711,11.4356689453125C34.79305648803711,11.489013671875,34.84383773803711,11.6490478515625,34.90633773803711,11.7919921875C35.07540512084961,12.1806640625,35.22030258178711,12.622802734375,35.28878402709961,12.960693359375C35.32235336303711,13.12646484375,35.38509750366211,13.3316650390625,35.42794418334961,13.416015625C35.47079086303711,13.50048828125,35.52145004272461,13.71484375,35.54122543334961,13.8902587890625C35.56100082397461,14.065673828125,35.61898422241211,14.3533935546875,35.66878890991211,14.52783203125C35.95553207397461,15.519775390625,36.09798812866211,18.442138671875,35.92452621459961,19.7347412109375C35.87301254272461,20.118896484375,35.81478500366211,20.5831298828125,35.79525375366211,20.766357421875C35.76192855834961,21.080078125,35.59615707397461,21.8912353515625,35.45431137084961,22.4364013671875L35.30807113647461,23.013671875C35.03255844116211,24.12548828125,34.35152816772461,25.708984375,33.51974105834961,27.174072265625C33.19015121459961,27.755615234375,32.08553695678711,29.328125,31.87679672241211,29.512451171875C31.85775375366211,29.52880859375,31.76461410522461,29.638916015625,31.67013168334961,29.7548828125C31.57540512084961,29.872314453125,31.27254867553711,30.200439453125,30.99789047241211,30.483642578125C29.78829574584961,31.731201171875,28.81283187866211,32.502685546875,27.10018539428711,33.565185546875C26.89706039428711,33.69140625,25.17477035522461,34.53173828125,24.85250473022461,34.662353515625C24.68563461303711,34.729248046875,24.40658187866211,34.84228515625,24.23311996459961,34.9124755859375C24.06063461303711,34.9818115234375,23.86849594116211,35.0400390625,23.80807113647461,35.0411376953125C23.74752426147461,35.0419921875,23.58834457397461,35.095947265625,23.45418930053711,35.1605224609375C23.32027816772461,35.2252197265625,23.14986801147461,35.2791748046875,23.07418441772461,35.2802734375C22.99935531616211,35.2813720703125,22.78091049194336,35.334228515625,22.58852767944336,35.397705078125C22.39638900756836,35.462158203125,22.12929916381836,35.53173828125,21.99526596069336,35.55224609375C21.86147689819336,35.5732421875,21.57461166381836,35.63037109375,21.35708236694336,35.6787109375C21.13955307006836,35.726806640625,20.48257064819336,35.8212890625,19.89834213256836,35.88818359375C18.59536361694336,36.0400390625,17.27895736694336,36.0372314453125,15.97695541381836,35.87939453125M17.29934310913086,32.3677978515625C17.38369369506836,32.3021240234375,17.47060775756836,32.1712646484375,17.49367904663086,32.079345703125C17.54421615600586,31.876220703125,25.71480941772461,15.512939453125,25.86874008178711,15.307861328125C25.99825668334961,15.1346435546875,26.01034164428711,14.8570556640625,25.89181137084961,14.75927734375C25.82943344116211,14.706787109375,25.04696273803711,14.6900634765625,22.95864486694336,14.693603515625C21.39223861694336,14.697021484375,20.07534408569336,14.697998046875,20.03213119506836,14.697021484375C19.96877670288086,14.694580078125,19.95559310913086,13.64892578125,19.96181869506836,9.17041015625C19.96657943725586,6.1317138671875,19.95229721069336,3.61767578125,19.93008041381836,3.582763671875C19.90810775756836,3.5474853515625,19.82241439819336,3.51904296875,19.73891830444336,3.51904296875C19.62148666381836,3.51904296875,19.56655502319336,3.569580078125,19.49441146850586,3.74609375C19.35781478881836,4.07421875,18.98110580444336,4.819091796875,17.14663314819336,8.3770751953125C16.76577377319336,9.115478515625,16.38564682006836,9.854248046875,16.00625228881836,10.59375C15.68117904663086,11.2291259765625,15.16836166381836,12.2266845703125,14.86819076538086,12.8101806640625C14.06045150756836,14.378662109375,13.25454330444336,15.947998046875,12.45034408569336,17.518310546875C11.06313705444336,20.225341796875,10.89492416381836,20.548095703125,10.83559799194336,20.619384765625C10.72011947631836,20.7587890625,10.65761947631836,21.080078125,10.72231674194336,21.200927734375C10.78164291381836,21.311767578125,10.89931869506836,21.316162109375,13.82802963256836,21.311767578125C15.50197982788086,21.3095703125,16.88296127319336,21.318359375,16.89736557006836,21.331298828125C16.93581771850586,21.370849609375,16.92153549194336,31.812744140625,16.88161849975586,32.0616455078125C16.85549545288086,32.22509765625,16.87307357788086,32.3116455078125,16.94790267944336,32.3863525390625C17.07717514038086,32.5159912109375,17.11257553100586,32.5146484375,17.29934310913086,32.3677978515625M17.29934310913086,32.3677978515625" style="fill: rgb(200, 184, 219); fill-opacity: 1;"/></g></g></g></svg>