<svg width="36" xmlns="http://www.w3.org/2000/svg" height="36" id="screenshot-77104d06-8dea-802d-8006-8970d0e5ebdb" viewBox="0 0 36 36" xmlns:xlink="http://www.w3.org/1999/xlink" fill="none" version="1.1"><g id="shape-77104d06-8dea-802d-8006-8970d0e5ebdb" width="24" height="24" rx="0" ry="0" style="fill: rgb(0, 0, 0);"><g id="shape-77104d06-8dea-802d-8006-8970d0e80718" style="display: none;"><g class="fills" id="fills-77104d06-8dea-802d-8006-8970d0e80718"><rect width="36" height="36" x="0" transform="matrix(1.000000, 0.000000, 0.000000, 1.000000, 0.000000, 0.000000)" style="fill: rgb(247, 111, 142); fill-opacity: 1;" ry="0" fill="none" rx="0" y="0"/></g></g><g id="shape-77104d06-8dea-802d-8006-8970d0e96351"><g class="fills" id="fills-77104d06-8dea-802d-8006-8970d0e96351"><path d="M13.8599853515625,28.552490234375C12.50848388671875,27.3134765625,12.114013671875,24.7109375,12.676513671875,22.823974609375C13.65155029296875,24.013427734375,15.0045166015625,24.3900146484375,16.405517578125,24.60302734375C18.5655517578125,24.929931640625,20.68951416015625,24.8084716796875,22.697998046875,23.8170166015625C22.92742919921875,23.7030029296875,23.1405029296875,23.551513671875,23.3909912109375,23.39990234375C23.5799560546875,23.947509765625,23.62945556640625,24.5009765625,23.5634765625,25.0650634765625C23.40301513671875,26.4375,22.7235107421875,27.498046875,21.6390380859375,28.302001953125C21.20556640625,28.62451171875,20.7479248046875,28.9110107421875,20.301025390625,29.2139892578125C18.927001953125,30.14697265625,18.55499267578125,31.239013671875,19.07098388671875,32.8289794921875L19.1219482421875,33C18.46124267578125,32.7120361328125,17.90203857421875,32.2322998046875,17.5169677734375,31.623046875C17.114501953125,30.995849609375,16.9000244140625,30.2667236328125,16.89898681640625,29.521484375C16.89453125,29.1494140625,16.89453125,28.7760009765625,16.844970703125,28.4114990234375C16.72344970703125,27.51904296875,16.30499267578125,27.1214599609375,15.52044677734375,27.0975341796875C14.741455078125,27.0533447265625,14.0509033203125,27.594970703125,13.907958984375,28.362060546875C13.89495849609375,28.419921875,13.87847900390625,28.48291015625,13.8585205078125,28.551025390625M6.14996337890625,22.510498046875C6.14996337890625,22.510498046875,10.14898681640625,20.555908203125,14.1600341796875,20.555908203125L17.1839599609375,11.166015625C17.2965087890625,10.7099609375,17.6280517578125,10.4010009765625,18,10.4010009765625C18.375,10.4010009765625,18.7049560546875,10.7099609375,18.81744384765625,11.166015625L21.8414306640625,20.555908203125C26.592041015625,20.555908203125,29.85150146484375,22.510498046875,29.85150146484375,22.510498046875L23.04443359375,3.9029541015625C22.84942626953125,3.35400390625,22.51953125,3,22.0770263671875,3L13.924560546875,3C13.48046875,3,13.16546630859375,3.35400390625,12.95703125,3.9029541015625C12.94195556640625,3.93896484375,6.14996337890625,22.510498046875,6.14996337890625,22.510498046875" style="fill: rgb(247, 111, 142); fill-opacity: 1;"/></g></g></g></svg>