<svg width="36" xmlns="http://www.w3.org/2000/svg" height="36" id="screenshot-77104d06-8dea-802d-8006-8970d7e9c18d" viewBox="0 0 36 36" xmlns:xlink="http://www.w3.org/1999/xlink" fill="none" version="1.1"><g id="shape-77104d06-8dea-802d-8006-8970d7e9c18d" width="24" height="24" rx="0" ry="0" style="fill: rgb(0, 0, 0);"><g id="shape-77104d06-8dea-802d-8006-8970d7eea6e4" style="display: none;"><g class="fills" id="fills-77104d06-8dea-802d-8006-8970d7eea6e4"><rect width="36" height="36" x="0" transform="matrix(1.000000, 0.000000, 0.000000, 1.000000, 0.000000, 0.000000)" style="fill: rgb(200, 184, 219); fill-opacity: 1;" ry="0" fill="none" rx="0" y="0"/></g></g><g id="shape-77104d06-8dea-802d-8006-8970d7f04037"><g class="fills" id="fills-77104d06-8dea-802d-8006-8970d7f04037"><path d="M22.75799560546875,-4.547473508864641e-13L16.49395751953125,-4.547473508864641e-13L16.49395751953125,8.89794921875C15.6024169921875,8.6827392578125,14.68707275390625,8.58203125,13.77001953125,8.597900390625C7.2239990234375,8.5965576171875,3,12.45751953125,3,18.4095458984375C3,24.58642578125,6.9825439453125,27.803955078125,14.63250732421875,27.8115234375C17.18701171875,27.8115234375,19.549560546875,27.58642578125,22.75799560546875,27.0164794921875ZM14.60101318359375,13.4654541015625C15.375,13.4654541015625,15.98095703125,13.54052734375,16.7130126953125,13.7655029296875L16.7130126953125,23.137451171875C15.81903076171875,23.25,15.2550048828125,23.28759765625,14.56201171875,23.28759765625C11.35198974609375,23.28759765625,9.6044921875,21.574462890625,9.6044921875,18.472412109375C9.6044921875,15.2850341796875,11.43450927734375,13.4654541015625,14.60101318359375,13.4654541015625" fill-rule="evenodd" clip-rule="evenodd" style="fill: rgb(200, 184, 219); fill-opacity: 1;"/></g></g><g id="shape-77104d06-8dea-802d-8006-8970d7f118d7"><g class="fills" id="fills-77104d06-8dea-802d-8006-8970d7f118d7"><path d="M33,22.849365234375L33,9.322509765625L26.74505615234375,9.322509765625L26.74505615234375,20.8349609375C26.74505615234375,25.91552734375,26.4630126953125,27.845947265625,25.56744384765625,29.5140380859375C24.71246337890625,31.14453125,23.37451171875,32.214111328125,20.6099853515625,33.4229736328125L26.4224853515625,36C29.18701171875,34.70703125,30.52496337890625,33.5355224609375,31.54046630859375,31.679931640625C32.62945556640625,29.748046875,33,27.507080078125,33,22.849365234375M32.3775634765625,-4.547473508864641e-13L26.11346435546875,-4.547473508864641e-13L26.11346435546875,5.989501953125L32.3775634765625,5.989501953125Z" style="fill: rgb(200, 184, 219); fill-opacity: 1;"/></g></g></g></svg>