<svg width="36" xmlns="http://www.w3.org/2000/svg" height="36" id="screenshot-77104d06-8dea-802d-8006-8970ba7c7278" viewBox="0 0 36 36" xmlns:xlink="http://www.w3.org/1999/xlink" fill="none" version="1.1"><g id="shape-77104d06-8dea-802d-8006-8970ba7c7278" width="24" height="24" rx="0" ry="0" style="fill: rgb(0, 0, 0);"><g id="shape-77104d06-8dea-802d-8006-8970ba7c7279" style="display: none;"><g class="fills" id="fills-77104d06-8dea-802d-8006-8970ba7c7279"><rect width="36" height="36" x="0" transform="matrix(1.000000, 0.000000, 0.000000, 1.000000, 0.000000, 0.000000)" style="fill: rgb(254, 95, 0); fill-opacity: 1;" ry="0" fill="none" rx="0" y="0"/></g></g><g id="shape-77104d06-8dea-802d-8006-8970ba7c727a" rx="0" ry="0" style="fill: rgb(0, 0, 0);"><g id="shape-77104d06-8dea-802d-8006-8970ba7c727b" clip-path="url(#render-4-a)" rx="0" ry="0" style="fill: rgb(0, 0, 0);"><defs><clipPath id="render-4-a" class="svg-def" transform="matrix(1.500000, 0.000000, 0.000000, 1.500000, 0.000000, 0.000000)"><path fill="#fff" d="M0 0h24v24H0z"/></clipPath></defs><g id="shape-77104d06-8dea-802d-8006-8970ba7c727d"><g class="fills" id="fills-77104d06-8dea-802d-8006-8970ba7c727d"><path d="M-0.000034332275390625,-4.547473508864641e-13L35.99996566772461,-4.547473508864641e-13L35.99996566772461,36L-0.000034332275390625,36ZM27.52047348022461,30.179931640625C25.85103988647461,30.179931640625,24.90743637084961,29.31005859375,24.18294906616211,28.125L21.43343734741211,29.722412109375C22.42647933959961,31.6845703125,24.45602035522461,33.181396484375,27.59835433959961,33.181396484375C30.81148910522461,33.181396484375,33.20394515991211,31.5135498046875,33.20394515991211,28.467041015625C33.20394515991211,25.6424560546875,31.58102035522461,24.3870849609375,28.70699691772461,23.152587890625L27.86092758178711,22.791015625C26.40902328491211,22.160888671875,25.78048324584961,21.75146484375,25.78048324584961,20.7359619140625C25.78048324584961,19.91552734375,26.41048812866211,19.286865234375,27.40060043334961,19.286865234375C28.37093734741211,19.286865234375,28.99642562866211,19.696533203125,29.57699203491211,20.7359619140625L32.21090316772461,19.0455322265625C31.09640121459961,17.0849609375,29.55147933959961,16.33642578125,27.40060043334961,16.33642578125C24.37936019897461,16.33642578125,22.44601058959961,18.2684326171875,22.44601058959961,20.806396484375C22.44601058959961,23.55908203125,24.06600570678711,24.8624267578125,26.50802230834961,25.902099609375L27.35396957397461,26.2650146484375C28.89742660522461,26.93994140625,29.81698226928711,27.35107421875,29.81698226928711,28.5106201171875C29.81698226928711,29.4796142578125,28.92147445678711,30.179931640625,27.52047348022461,30.179931640625M14.41036605834961,30.157470703125C13.24801254272461,30.157470703125,12.76339340209961,29.3624267578125,12.23250961303711,28.4176025390625L9.47848129272461,30.08544921875C10.27645492553711,31.7744140625,11.84542465209961,33.1754150390625,14.55294418334961,33.1754150390625C17.55147933959961,33.1754150390625,19.60494613647461,31.5809326171875,19.60494613647461,28.0784912109375L19.60494613647461,16.528564453125L16.22249984741211,16.528564453125L16.22249984741211,28.033447265625C16.22249984741211,29.723876953125,15.52047348022461,30.157470703125,14.40902328491211,30.157470703125" fill-rule="evenodd" clip-rule="evenodd" style="fill: rgb(254, 95, 0); fill-opacity: 1;"/></g></g></g><g id="shape-77104d06-8dea-802d-8006-8970ba7c727c"><defs fill="none" style="fill: rgb(254, 95, 0); fill-opacity: 1;"/></g></g></g></svg>