<svg width="36.001" xmlns="http://www.w3.org/2000/svg" height="36" id="screenshot-77104d06-8dea-802d-8006-8970f99ebe73" viewBox="0 0 36.001 36" xmlns:xlink="http://www.w3.org/1999/xlink" fill="none" version="1.1"><g id="shape-77104d06-8dea-802d-8006-8970f99ebe73" width="24" height="24" rx="0" ry="0" style="fill: rgb(0, 0, 0);"><g id="shape-77104d06-8dea-802d-8006-8970f99ebe74" style="display: none;"><g class="fills" id="fills-77104d06-8dea-802d-8006-8970f99ebe74"><rect width="36" height="36" x="0" transform="matrix(1.000000, 0.000000, 0.000000, 1.000000, 0.000000, 0.000000)" style="fill: rgb(104, 231, 75); fill-opacity: 1;" ry="0" fill="none" rx="0" y="0"/></g></g><g id="shape-77104d06-8dea-802d-8006-8970f99ebe75" rx="0" ry="0" style="fill: rgb(0, 0, 0);"><g id="shape-77104d06-8dea-802d-8006-8970f99ebe76" clip-path="url(#render-13-a)" rx="0" ry="0" style="fill: rgb(0, 0, 0);"><defs><clipPath id="render-13-a" class="svg-def" transform="matrix(1.499355, 0.000000, 0.000000, 1.500000, 0.000000, 0.000000)"><path fill="#fff" d="M0 0h24v24H0z"/></clipPath></defs><g id="shape-77104d06-8dea-802d-8006-8970f99ebe78"><g class="fills" id="fills-77104d06-8dea-802d-8006-8970f99ebe78"><path d="M17.8709716796875,-4.547473508864641e-13C8.72998046875,-4.547473508864641e-13,9.29998779296875,3.9840087890625,9.29998779296875,3.9840087890625L9.3104248046875,8.112060546875L18.031494140625,8.112060546875L18.031494140625,9.35107421875L5.85003662109375,9.35107421875C5.85003662109375,9.35107421875,-1.1368683772161603e-13,8.68359375,-1.1368683772161603e-13,17.9534912109375C-1.1368683772161603e-13,27.2236328125,5.1044921875,26.8935546875,5.1044921875,26.8935546875L8.14947509765625,26.8935546875L8.14947509765625,22.593017578125C8.14947509765625,22.593017578125,7.9859619140625,17.4630126953125,13.174560546875,17.4630126953125L21.823486328125,17.4630126953125C21.823486328125,17.4630126953125,26.68353271484375,17.541015625,26.68353271484375,12.740966796875L26.68353271484375,4.802978515625C26.68353271484375,4.802978515625,27.41998291015625,-4.547473508864641e-13,17.8695068359375,-4.547473508864641e-13M13.06201171875,2.77490234375C13.92901611328125,2.77490234375,14.63104248046875,3.47998046875,14.63104248046875,4.35302734375C14.63104248046875,5.2244873046875,13.92901611328125,5.929443359375,13.06201171875,5.929443359375C12.19500732421875,5.929443359375,11.49298095703125,5.2244873046875,11.49298095703125,4.35302734375C11.49298095703125,3.47998046875,12.19354248046875,2.77490234375,13.06201171875,2.77490234375" style="fill: rgb(104, 231, 75); fill-opacity: 1;"/></g></g><g id="shape-77104d06-8dea-802d-8006-8970f99ebe79"><g class="fills" id="fills-77104d06-8dea-802d-8006-8970f99ebe79"><path d="M18.1304931640625,36C27.26849365234375,36,26.69842529296875,32.0159912109375,26.69842529296875,32.0159912109375L26.68792724609375,27.8880615234375L17.967041015625,27.8880615234375L17.967041015625,26.64892578125L30.15142822265625,26.64892578125C30.15142822265625,26.64892578125,36.00140380859375,27.316650390625,36.00140380859375,18.0465087890625C36.00140380859375,8.7764892578125,30.89544677734375,9.1064453125,30.89544677734375,9.1064453125L27.85052490234375,9.1064453125L27.85052490234375,13.406982421875C27.85052490234375,13.406982421875,28.01397705078125,18.5369873046875,22.825439453125,18.5369873046875L14.17803955078125,18.5369873046875C14.17803955078125,18.5369873046875,9.3179931640625,18.458984375,9.3179931640625,23.259033203125L9.3179931640625,31.197021484375C9.3179931640625,31.197021484375,8.5799560546875,36,18.1304931640625,36M22.93951416015625,33.22509765625C22.07098388671875,33.22509765625,21.37054443359375,32.52001953125,21.37054443359375,31.64697265625C21.37054443359375,30.775634765625,22.07098388671875,30.070556640625,22.93951416015625,30.070556640625C23.80633544921875,30.070556640625,24.50848388671875,30.775634765625,24.50848388671875,31.64697265625C24.50848388671875,32.52001953125,23.80633544921875,33.22509765625,22.93951416015625,33.22509765625" style="fill: rgb(104, 231, 75); fill-opacity: 1;"/></g></g></g><g id="shape-77104d06-8dea-802d-8006-8970f99ebe77"><defs fill="none" style="fill: rgb(104, 231, 75); fill-opacity: 1;"/></g></g></g></svg>